<svg width="24" height="24" xmlns="http://www.w3.org/2000/svg" viewBox="0 0 40 40" fill="none"><path d="M10 28.3333L11.5274 37.4977C11.6078 37.9799 12.025 38.3333 12.5138 38.3333H23.3333" stroke="currentColor" stroke-width="1.8" stroke-linecap="round"></path><rect x="11.6667" y="11.6667" width="16.6667" height="5" rx="1" stroke="currentColor" stroke-width="1.8"></rect><path d="M20 31.6667C11.7157 31.6667 5 24.951 5 16.6667C5 8.38242 11.7157 1.66669 20 1.66669C26.409 1.66669 31.8792 5.68612 34.0273 11.3417" stroke="currentColor" stroke-width="1.8" stroke-linecap="round"></path><path d="M33.756 16.25L23.906 27.7167C23.8264 27.8061 23.7746 27.9167 23.7568 28.0351C23.7391 28.1535 23.7561 28.2745 23.806 28.3833C23.8574 28.4942 23.9399 28.5879 24.0434 28.6529C24.1469 28.718 24.2671 28.7517 24.3893 28.75H28.756V38.75L38.606 27.2833C38.6856 27.1939 38.7374 27.0833 38.7551 26.9649C38.7729 26.8465 38.7558 26.7255 38.706 26.6167C38.6557 26.5083 38.5758 26.4164 38.4756 26.3516C38.3753 26.2867 38.2587 26.2515 38.1393 26.25H33.756V16.25Z" stroke="currentColor" stroke-width="1.8" stroke-linecap="round" stroke-linejoin="round"></path></svg>
